<svg width="388" height="388" fill="none" xmlns="http://www.w3.org/2000/svg"><path d="M388 0H0v388h388V0z" fill="#fff"/><path d="M388 0H0v388h388V0z" fill="#CDDCEB"/><g filter="url(#filter0_i_1_280)"><path d="M333.589 42.664H54.409v346.083h279.18V42.664z" fill="#FF7549"/></g><mask id="mask0_1_280" style="mask-type:alpha" maskUnits="userSpaceOnUse" x="54" y="42" width="280" height="347"><path d="M333.589 42.664H54.409v346.083h279.18V42.664z" fill="#FF7549"/></mask><g mask="url(#mask0_1_280)"><path opacity=".24" d="M118.487 125.262c-3.621 0-6.922-.924-9.902-2.772-2.961-1.867-5.3-4.376-7.017-7.526-1.697-3.149-2.546-6.582-2.546-10.298 0-3.904.915-7.412 2.745-10.524 1.848-3.112 4.281-5.535 7.299-7.27 3.017-1.755 6.214-2.632 9.59-2.632 2.867 0 5.631.67 8.29 2.01 2.659 1.338 5.026 3.384 7.101 6.138l-7.582 4.074c-1.132-1.264-2.377-2.206-3.735-2.83-1.358-.64-2.753-.961-4.187-.961-1.905 0-3.706.519-5.404 1.556-1.678 1.038-3.036 2.48-4.073 4.329-1.037 1.848-1.556 3.942-1.556 6.28 0 2.188.499 4.197 1.499 6.026 1 1.83 2.348 3.272 4.046 4.329a10.296 10.296 0 005.545 1.584c1.81 0 3.536-.49 5.177-1.471 1.66-.981 3.046-2.433 4.159-4.357h-5.319v-7.355h15.334c.019.245.028.603.028 1.074 0 3.735-.868 7.177-2.602 10.327-1.736 3.15-4.093 5.649-7.073 7.497-2.98 1.848-6.252 2.772-9.817 2.772zm41.514-40.343c2.131 0 4.083.547 5.856 1.641a11.76 11.76 0 014.187 4.414c1.038 1.848 1.556 3.866 1.556 6.054 0 2.527-.622 4.79-1.867 6.79-1.245 1.98-2.942 3.489-5.092 4.526l9.392 16.183h-9.788l-8.94-15.391h-2.943v15.391h-8.487V84.919h16.126zm-1.018 15.73c.735 0 1.414-.189 2.036-.565a4.47 4.47 0 001.528-1.557 4.21 4.21 0 00.566-2.121c0-.755-.189-1.453-.566-2.094a4.164 4.164 0 00-1.528-1.556 3.719 3.719 0 00-2.036-.594h-6.621v8.487h6.621zm41.511-15.73l14.372 39.608h-8.996l-2.264-6.224H187.82l-2.263 6.224h-8.997l14.372-39.608h9.562zm0 24.897l-4.809-13.128-4.753 13.128h9.562zm33.854-24.897c2.131 0 4.083.557 5.856 1.67a11.908 11.908 0 014.244 4.413c1.037 1.848 1.556 3.857 1.556 6.026 0 2.188-.537 4.206-1.613 6.054a12.145 12.145 0 01-4.271 4.414c-1.792 1.094-3.716 1.64-5.772 1.64h-6.45v15.391h-8.488V84.919h14.938zm-.962 15.73c.736 0 1.415-.189 2.037-.565a4.479 4.479 0 001.528-1.557c.377-.66.565-1.367.565-2.121 0-.755-.188-1.453-.565-2.094a4.171 4.171 0 00-1.528-1.556 3.72 3.72 0 00-2.037-.594h-5.488v8.487h5.488zm48.472-15.73v39.608h-8.487v-16.975h-14.033v16.975h-8.487V84.919h8.487v14.146h14.033V84.92h8.487zm8.19 0h8.487v39.608h-8.487V84.919zm33.881 40.343c-3.527 0-6.78-.924-9.76-2.772-2.98-1.848-5.347-4.338-7.101-7.469-1.736-3.149-2.603-6.582-2.603-10.298 0-3.734.867-7.167 2.603-10.298 1.754-3.15 4.121-5.64 7.101-7.469 2.98-1.848 6.233-2.772 9.76-2.772 3.131 0 6.045.726 8.743 2.178 2.716 1.453 4.988 3.442 6.818 5.97l-7.582 4.074a11.069 11.069 0 00-3.593-2.745 10.019 10.019 0 00-4.386-.99c-1.98 0-3.819.538-5.516 1.613-1.679 1.075-3.009 2.536-3.989 4.385-.981 1.848-1.472 3.866-1.472 6.054 0 2.169.491 4.178 1.472 6.026.999 1.848 2.338 3.32 4.017 4.414a9.987 9.987 0 005.488 1.612c1.547 0 3.009-.33 4.386-.99a11.247 11.247 0 003.593-2.801l7.582 4.13c-1.83 2.528-4.102 4.518-6.818 5.97-2.698 1.453-5.612 2.178-8.743 2.178zm48.517-40.343c3.584 0 6.884.896 9.902 2.688a19.756 19.756 0 017.214 7.214c1.792 3.018 2.688 6.319 2.688 9.902 0 3.584-.896 6.894-2.688 9.93-1.773 3.018-4.178 5.423-7.214 7.215-3.018 1.772-6.318 2.659-9.902 2.659h-13.127V84.919h13.127zm0 31.121c2.018 0 3.895-.5 5.63-1.5a11.41 11.41 0 004.131-4.131c1.037-1.734 1.555-3.63 1.555-5.686a10.83 10.83 0 00-1.555-5.658 11.419 11.419 0 00-4.131-4.13 10.928 10.928 0 00-5.63-1.528h-4.64v22.633h4.64zm25.718-31.12H423.4v8.487h-16.748v5.658h12.901v8.487h-12.901v8.488H423.4v8.487h-25.236V84.919zm45.926 40.342c-2.225 0-4.366-.358-6.422-1.074-2.056-.717-3.848-1.745-5.375-3.084-1.509-1.339-2.594-2.914-3.254-4.725l7.978-2.942c.189.565.613 1.103 1.273 1.612.68.51 1.519.924 2.519 1.245 1.018.321 2.112.481 3.281.481 1.132 0 2.198-.16 3.197-.481 1.019-.339 1.829-.802 2.433-1.386.622-.604.933-1.282.933-2.037 0-1.094-.631-1.952-1.895-2.574-1.245-.623-2.801-1.066-4.668-1.33-4.677-.679-8.355-1.999-11.033-3.961-2.678-1.962-4.018-4.772-4.018-8.431 0-2.395.689-4.536 2.065-6.422 1.378-1.886 3.216-3.348 5.517-4.385 2.32-1.056 4.81-1.584 7.469-1.584 2.245 0 4.395.358 6.451 1.075 2.055.717 3.837 1.754 5.347 3.112 1.527 1.34 2.612 2.923 3.253 4.753l-7.978 2.886c-.189-.566-.622-1.094-1.302-1.585-.678-.51-1.537-.914-2.574-1.216-1.037-.321-2.16-.481-3.366-.481-1.076 0-2.103.17-3.085.509-.98.34-1.782.81-2.404 1.415-.603.584-.905 1.226-.905 1.923 0 .962.273 1.698.82 2.207.566.49 1.264.84 2.093 1.047.83.207 2.047.424 3.65.651 2.848.414 5.394 1.141 7.639 2.178 2.263 1.037 4.064 2.414 5.403 4.131 1.34 1.716 2.009 3.743 2.009 6.082 0 2.395-.689 4.536-2.065 6.422-1.358 1.886-3.188 3.357-5.489 4.414-2.301 1.037-4.8 1.555-7.497 1.555zm38.204 0c-3.621 0-6.922-.924-9.902-2.772-2.961-1.867-5.3-4.376-7.016-7.526-1.698-3.149-2.547-6.582-2.547-10.298 0-3.904.915-7.412 2.745-10.524 1.848-3.112 4.281-5.535 7.299-7.27 3.018-1.755 6.215-2.632 9.591-2.632 2.866 0 5.63.67 8.289 2.01 2.66 1.338 5.027 3.384 7.101 6.138l-7.582 4.074c-1.132-1.264-2.376-2.206-3.734-2.83-1.358-.64-2.754-.961-4.188-.961-1.904 0-3.705.519-5.403 1.556-1.678 1.038-3.037 2.48-4.074 4.329-1.037 1.848-1.556 3.942-1.556 6.28 0 2.188.5 4.197 1.499 6.026 1 1.83 2.348 3.272 4.046 4.329a10.301 10.301 0 005.545 1.584c1.811 0 3.536-.49 5.178-1.471 1.659-.981 3.045-2.433 4.158-4.357h-5.319v-7.355h15.334c.019.245.029.603.029 1.074 0 3.735-.868 7.177-2.603 10.327-1.735 3.15-4.093 5.649-7.073 7.497-2.98 1.848-6.252 2.772-9.817 2.772zm26.237-40.343h8.487v39.608h-8.487V84.919zm16.668 0h9.166l14.484 24.274V84.92h8.487v39.607h-9.166l-14.484-24.274v24.274h-8.487V84.919z" fill="#fff"/><path d="M118.487 119.798c-3.621 0-6.922-.925-9.902-2.773-2.961-1.867-5.3-4.376-7.017-7.525-1.697-3.15-2.546-6.583-2.546-10.299 0-3.903.915-7.412 2.745-10.524 1.848-3.112 4.281-5.536 7.299-7.27 3.017-1.755 6.214-2.632 9.59-2.632 2.867 0 5.631.67 8.29 2.009 2.659 1.34 5.026 3.385 7.101 6.139l-7.582 4.074c-1.132-1.263-2.377-2.207-3.735-2.83-1.358-.64-2.753-.96-4.187-.96-1.905 0-3.706.518-5.404 1.555-1.678 1.037-3.036 2.48-4.073 4.328-1.037 1.849-1.556 3.942-1.556 6.28 0 2.189.499 4.198 1.499 6.027 1 1.83 2.348 3.273 4.046 4.329a10.296 10.296 0 005.545 1.584c1.81 0 3.536-.49 5.177-1.471 1.66-.981 3.046-2.433 4.159-4.357h-5.319v-7.356h15.334c.019.245.028.604.028 1.075 0 3.735-.868 7.177-2.602 10.327-1.736 3.149-4.093 5.648-7.073 7.497-2.98 1.848-6.252 2.773-9.817 2.773zm41.514-40.344c2.131 0 4.083.547 5.856 1.64a11.764 11.764 0 014.187 4.414c1.038 1.849 1.556 3.867 1.556 6.055 0 2.527-.622 4.79-1.867 6.79-1.245 1.98-2.942 3.489-5.092 4.527l9.392 16.182h-9.788l-8.94-15.39h-2.943v15.39h-8.487V79.454h16.126zm-1.018 15.73c.735 0 1.414-.188 2.036-.566a4.464 4.464 0 001.528-1.555 4.215 4.215 0 00.566-2.123c0-.754-.189-1.452-.566-2.093a4.168 4.168 0 00-1.528-1.556 3.717 3.717 0 00-2.036-.594h-6.621v8.487h6.621zm41.511-15.73l14.372 39.608h-8.996l-2.264-6.224H187.82l-2.263 6.224h-8.997l14.372-39.608h9.562zm0 24.896l-4.809-13.126-4.753 13.126h9.562zm33.854-24.896c2.131 0 4.083.556 5.856 1.67a11.913 11.913 0 014.244 4.413c1.037 1.848 1.556 3.857 1.556 6.026 0 2.188-.537 4.206-1.613 6.054a12.13 12.13 0 01-4.271 4.413c-1.792 1.094-3.716 1.642-5.772 1.642h-6.45v15.39h-8.488V79.454h14.938zm-.962 15.73c.736 0 1.415-.188 2.037-.566a4.472 4.472 0 001.528-1.555 4.214 4.214 0 00.565-2.123c0-.754-.188-1.452-.565-2.093a4.175 4.175 0 00-1.528-1.556 3.718 3.718 0 00-2.037-.594h-5.488v8.487h5.488zm48.472-15.73v39.608h-8.487v-16.975h-14.033v16.975h-8.487V79.454h8.487V93.6h14.033V79.454h8.487zm8.19 0h8.487v39.608h-8.487V79.454zm33.881 40.344c-3.527 0-6.78-.925-9.76-2.773-2.98-1.849-5.347-4.338-7.101-7.469-1.736-3.15-2.603-6.582-2.603-10.298 0-3.734.867-7.167 2.603-10.298 1.754-3.15 4.121-5.64 7.101-7.47 2.98-1.847 6.233-2.771 9.76-2.771 3.131 0 6.045.726 8.743 2.178 2.716 1.452 4.988 3.442 6.818 5.97l-7.582 4.073a11.078 11.078 0 00-3.593-2.744 10.02 10.02 0 00-4.386-.99c-1.98 0-3.819.537-5.516 1.612-1.679 1.076-3.009 2.538-3.989 4.386-.981 1.848-1.472 3.866-1.472 6.054 0 2.169.491 4.178 1.472 6.026.999 1.849 2.338 3.319 4.017 4.413a9.972 9.972 0 005.488 1.613c1.547 0 3.009-.33 4.386-.99a11.247 11.247 0 003.593-2.801l7.582 4.131c-1.83 2.527-4.102 4.517-6.818 5.969-2.698 1.452-5.612 2.179-8.743 2.179zm48.517-40.344c3.584 0 6.884.896 9.902 2.688a19.753 19.753 0 017.214 7.214c1.792 3.018 2.688 6.318 2.688 9.902 0 3.584-.896 6.894-2.688 9.93-1.773 3.018-4.178 5.423-7.214 7.214-3.018 1.774-6.318 2.66-9.902 2.66h-13.127V79.454h13.127zm0 31.12c2.018 0 3.895-.499 5.63-1.499a11.415 11.415 0 004.131-4.13c1.037-1.736 1.555-3.631 1.555-5.687a10.83 10.83 0 00-1.555-5.658 11.418 11.418 0 00-4.131-4.13 10.929 10.929 0 00-5.63-1.528h-4.64v22.632h4.64zm25.718-31.12H423.4v8.488h-16.748V93.6h12.901v8.487h-12.901v8.487H423.4v8.488h-25.236V79.454zm45.926 40.344c-2.225 0-4.366-.359-6.422-1.076-2.056-.716-3.848-1.744-5.375-3.083-1.509-1.34-2.594-2.915-3.254-4.725l7.978-2.942c.189.566.613 1.103 1.273 1.613.68.508 1.519.924 2.519 1.244 1.018.321 2.112.481 3.281.481 1.132 0 2.198-.16 3.197-.481 1.019-.34 1.829-.801 2.433-1.386.622-.603.933-1.283.933-2.037 0-1.094-.631-1.952-1.895-2.575-1.245-.622-2.801-1.065-4.668-1.329-4.677-.679-8.355-2-11.033-3.961-2.678-1.962-4.018-4.772-4.018-8.43 0-2.396.689-4.537 2.065-6.423 1.378-1.886 3.216-3.348 5.517-4.385 2.32-1.056 4.81-1.584 7.469-1.584 2.245 0 4.395.358 6.451 1.075 2.055.716 3.837 1.754 5.347 3.112 1.527 1.339 2.612 2.923 3.253 4.753l-7.978 2.885c-.189-.566-.622-1.094-1.302-1.584-.678-.51-1.537-.915-2.574-1.217-1.037-.32-2.16-.48-3.366-.48-1.076 0-2.103.17-3.085.508-.98.34-1.782.812-2.404 1.415-.603.585-.905 1.226-.905 1.924 0 .962.273 1.698.82 2.207.566.49 1.264.839 2.093 1.047.83.207 2.047.424 3.65.65 2.848.416 5.394 1.141 7.639 2.179 2.263 1.037 4.064 2.414 5.403 4.13 1.34 1.716 2.009 3.744 2.009 6.083 0 2.395-.689 4.536-2.065 6.422-1.358 1.886-3.188 3.357-5.489 4.413-2.301 1.038-4.8 1.557-7.497 1.557zm38.204 0c-3.621 0-6.922-.925-9.902-2.773-2.961-1.867-5.3-4.376-7.016-7.525-1.698-3.15-2.547-6.583-2.547-10.299 0-3.903.915-7.412 2.745-10.524 1.848-3.112 4.281-5.536 7.299-7.27 3.018-1.755 6.215-2.632 9.591-2.632 2.866 0 5.63.67 8.289 2.009 2.66 1.34 5.027 3.385 7.101 6.139l-7.582 4.074c-1.132-1.263-2.376-2.207-3.734-2.83-1.358-.64-2.754-.96-4.188-.96-1.904 0-3.705.518-5.403 1.555-1.678 1.037-3.037 2.48-4.074 4.328-1.037 1.849-1.556 3.942-1.556 6.28 0 2.189.5 4.198 1.499 6.027 1 1.83 2.348 3.273 4.046 4.329a10.301 10.301 0 005.545 1.584c1.811 0 3.536-.49 5.178-1.471 1.659-.981 3.045-2.433 4.158-4.357h-5.319v-7.356h15.334c.019.245.029.604.029 1.075 0 3.735-.868 7.177-2.603 10.327-1.735 3.149-4.093 5.648-7.073 7.497-2.98 1.848-6.252 2.773-9.817 2.773zm26.237-40.344h8.487v39.608h-8.487V79.454zm16.668 0h9.166l14.484 24.274V79.454h8.487v39.608h-9.166l-14.484-24.274v24.274h-8.487V79.454z" fill="#fff"/><path opacity=".24" d="M62.14 143.414c3.583 0 6.884.895 9.902 2.687a19.751 19.751 0 017.214 7.215c1.792 3.017 2.688 6.318 2.688 9.901 0 3.584-.896 6.894-2.688 9.93-1.773 3.018-4.177 5.423-7.214 7.215-3.018 1.773-6.319 2.659-9.902 2.659H49.013v-39.607H62.14zm0 31.12c2.018 0 3.895-.5 5.63-1.5a11.41 11.41 0 004.13-4.13c1.038-1.735 1.557-3.631 1.557-5.687 0-2.037-.52-3.923-1.557-5.658a11.42 11.42 0 00-4.13-4.131 10.932 10.932 0 00-5.63-1.527H57.5v22.633h4.64zm25.718-31.12h25.235v8.487H96.345v5.658h12.901v8.487h-12.9v8.488h16.747v8.487H87.858v-39.607zm45.926 40.343c-2.226 0-4.366-.359-6.422-1.075-2.056-.717-3.848-1.745-5.376-3.084-1.508-1.339-2.593-2.914-3.253-4.725l7.978-2.942c.189.566.613 1.103 1.273 1.613.679.509 1.518.924 2.518 1.244 1.018.321 2.112.481 3.282.481 1.132 0 2.197-.16 3.197-.481 1.018-.339 1.829-.801 2.433-1.386.622-.603.934-1.282.934-2.037 0-1.094-.633-1.952-1.896-2.574-1.245-.623-2.801-1.066-4.668-1.33-4.678-.679-8.356-1.999-11.034-3.961-2.678-1.962-4.017-4.772-4.017-8.43 0-2.396.688-4.537 2.065-6.423 1.377-1.886 3.216-3.347 5.517-4.385 2.32-1.056 4.809-1.584 7.469-1.584 2.244 0 4.394.358 6.45 1.075s3.839 1.754 5.347 3.112c1.528 1.339 2.613 2.923 3.254 4.753l-7.978 2.886c-.189-.566-.623-1.094-1.302-1.585-.679-.509-1.537-.914-2.574-1.216-1.038-.321-2.16-.481-3.367-.481-1.075 0-2.103.17-3.083.509-.981.339-1.783.811-2.405 1.415-.604.584-.906 1.226-.906 1.924 0 .961.274 1.697.821 2.206.566.49 1.264.839 2.093 1.047.83.208 2.047.424 3.65.651 2.848.414 5.394 1.141 7.638 2.178 2.264 1.037 4.065 2.414 5.404 4.131 1.339 1.716 2.009 3.743 2.009 6.082 0 2.395-.688 4.536-2.066 6.422-1.358 1.886-3.187 3.358-5.488 4.414-2.301 1.037-4.8 1.556-7.497 1.556zm22.114-40.343h8.487v39.607h-8.487v-39.607zm33.882 40.343c-3.621 0-6.922-.924-9.902-2.773-2.961-1.867-5.3-4.376-7.016-7.525-1.697-3.15-2.547-6.583-2.547-10.298 0-3.905.915-7.413 2.745-10.525 1.848-3.112 4.281-5.535 7.299-7.271 3.018-1.754 6.215-2.631 9.591-2.631 2.867 0 5.63.67 8.289 2.009 2.66 1.339 5.027 3.386 7.101 6.139l-7.582 4.074c-1.131-1.264-2.376-2.206-3.734-2.829-1.358-.641-2.754-.962-4.187-.962-1.905 0-3.707.519-5.404 1.556-1.679 1.038-3.037 2.481-4.074 4.329-1.037 1.848-1.556 3.942-1.556 6.28 0 2.188.5 4.197 1.499 6.027 1 1.829 2.349 3.272 4.046 4.328a10.301 10.301 0 005.545 1.584c1.811 0 3.537-.49 5.177-1.471 1.66-.98 3.047-2.433 4.16-4.357h-5.319v-7.355h15.333c.02.245.029.603.029 1.075 0 3.734-.868 7.176-2.603 10.326-1.735 3.15-4.093 5.649-7.073 7.497-2.98 1.849-6.252 2.773-9.817 2.773zm25.388-40.343h9.167l14.485 24.273v-24.273h8.487v39.607h-9.166l-14.485-24.274v24.274h-8.488v-39.607z" fill="#fff"/><path d="M61.656 137.866c3.584 0 6.884.896 9.902 2.688a19.753 19.753 0 017.214 7.214c1.792 3.018 2.688 6.318 2.688 9.902 0 3.584-.896 6.893-2.688 9.93-1.773 3.018-4.178 5.422-7.214 7.214-3.018 1.773-6.318 2.66-9.902 2.66H48.529v-39.608h13.127zm0 31.12c2.018 0 3.895-.499 5.63-1.499a11.41 11.41 0 004.13-4.13c1.038-1.736 1.556-3.631 1.556-5.687a10.83 10.83 0 00-1.555-5.658 11.412 11.412 0 00-4.131-4.131 10.934 10.934 0 00-5.63-1.527h-4.64v22.632h4.64zm25.718-31.12h25.236v8.488H95.861v5.658h12.901v8.487h-12.9v8.487h16.748v8.488H87.374v-39.608zM133.3 178.21a19.36 19.36 0 01-6.422-1.076c-2.056-.716-3.848-1.745-5.376-3.083-1.508-1.34-2.593-2.915-3.253-4.725l7.978-2.942c.189.566.613 1.103 1.273 1.612.679.509 1.519.925 2.518 1.245 1.019.321 2.113.481 3.282.481a10.4 10.4 0 003.197-.481c1.018-.34 1.829-.801 2.433-1.386.622-.604.933-1.283.933-2.037 0-1.094-.631-1.952-1.895-2.575-1.245-.622-2.801-1.065-4.668-1.329-4.677-.679-8.355-2-11.034-3.961-2.678-1.961-4.017-4.772-4.017-8.431 0-2.395.689-4.536 2.065-6.422 1.377-1.886 3.216-3.348 5.517-4.385 2.32-1.056 4.81-1.584 7.469-1.584 2.244 0 4.395.358 6.45 1.075 2.056.716 3.838 1.754 5.347 3.112 1.528 1.339 2.612 2.923 3.254 4.752l-7.978 2.886c-.189-.566-.623-1.094-1.302-1.584-.679-.509-1.537-.915-2.574-1.217-1.037-.32-2.16-.481-3.367-.481a9.35 9.35 0 00-3.084.51c-.98.339-1.782.811-2.405 1.414-.603.585-.905 1.226-.905 1.924 0 .962.274 1.698.821 2.207.565.49 1.263.839 2.093 1.046.83.208 2.047.425 3.65.651 2.848.415 5.394 1.141 7.639 2.179 2.263 1.037 4.064 2.414 5.403 4.13 1.339 1.716 2.009 3.744 2.009 6.083 0 2.395-.689 4.536-2.065 6.422-1.358 1.886-3.188 3.357-5.489 4.413-2.301 1.038-4.8 1.557-7.497 1.557zm22.114-40.344h8.488v39.608h-8.488v-39.608zm33.882 40.344c-3.621 0-6.922-.925-9.902-2.773-2.961-1.867-5.3-4.376-7.016-7.525-1.698-3.15-2.546-6.583-2.546-10.298 0-3.905.914-7.413 2.744-10.525 1.848-3.112 4.281-5.536 7.299-7.271 3.018-1.754 6.215-2.631 9.591-2.631 2.867 0 5.63.67 8.289 2.009s5.026 3.386 7.101 6.139l-7.582 4.074c-1.131-1.263-2.376-2.207-3.734-2.829-1.358-.642-2.754-.962-4.187-.962-1.905 0-3.707.519-5.404 1.556-1.679 1.037-3.037 2.48-4.074 4.328-1.037 1.849-1.556 3.942-1.556 6.281 0 2.188.5 4.197 1.499 6.026 1 1.83 2.349 3.273 4.046 4.329a10.301 10.301 0 005.545 1.584c1.811 0 3.537-.49 5.177-1.471 1.66-.981 3.047-2.433 4.159-4.357h-5.318v-7.356h15.334c.018.246.028.604.028 1.076 0 3.734-.868 7.176-2.603 10.326-1.735 3.149-4.093 5.648-7.073 7.497-2.98 1.848-6.252 2.773-9.817 2.773zm25.388-40.344h9.167l14.485 24.274v-24.274h8.487v39.608h-9.166L223.172 153.2v24.274h-8.488v-39.608z" fill="#fff"/><g opacity=".7"><mask id="mask1_1_280" style="mask-type:alpha" maskUnits="userSpaceOnUse" x="54" y="219" width="280" height="187"><path opacity=".7" d="M54.41 219.408v186.119h279.179V219.408H54.409z" fill="#181A3F"/></mask><g opacity=".7" mask="url(#mask1_1_280)"><path opacity=".3" d="M54.408 219.408v93.081h93.06v-93.081h-93.06z" fill="#fff"/><path opacity=".72" d="M54.408 312.489l93.06-93.081v93.081h-93.06z" fill="#fff"/><path opacity=".6" d="M147.47 312.489h93.059v93.059l-93.059-93.059z" fill="#fff"/><path opacity=".2" d="M240.528 219.408v93.081h93.06v-93.081h-93.06z" fill="#fff"/><mask id="mask2_1_280" style="mask-type:alpha" maskUnits="userSpaceOnUse" x="240" y="219" width="94" height="94"><path opacity=".7" d="M240.527 219.408v93.081h93.06v-93.081h-93.06z" fill="#FF7549"/></mask><g mask="url(#mask2_1_280)"><g opacity=".7"><path opacity=".72" d="M240.526 206.59c0-58.486 47.413-105.898 105.899-105.898 58.486 0 105.898 47.412 105.898 105.898s-47.412 105.899-105.898 105.899-105.899-47.413-105.899-105.899z" fill="#fff"/></g><path opacity=".4" d="M147.47 219.408v93.081h93.06v-93.081h-93.06z" fill="#fff"/><path opacity=".38" d="M240.528 312.488v93.06h93.06v-93.06h-93.06z" fill="#fff"/></g></g></g></g><defs><filter id="filter0_i_1_280" x="54.41" y="42.664" width="279.179" height="370.143" filterUnits="userSpaceOnUse" color-interpolation-filters="sRGB"><feFlood flood-opacity="0" result="BackgroundImageFix"/><feBlend in="SourceGraphic" in2="BackgroundImageFix" result="shape"/><feColorMatrix in="SourceAlpha" values="0 0 0 0 0 0 0 0 0 0 0 0 0 0 0 0 0 0 127 0" result="hardAlpha"/><feOffset dy="24.06"/><feGaussianBlur stdDeviation="37.809"/><feComposite in2="hardAlpha" operator="arithmetic" k2="-1" k3="1"/><feColorMatrix values="0 0 0 0 0 0 0 0 0 0 0 0 0 0 0 0 0 0 0.17 0"/><feBlend in2="shape" result="effect1_innerShadow_1_280"/></filter></defs></svg>