<svg width="260" height="989" fill="none" xmlns="http://www.w3.org/2000/svg"><path d="M260 1H0v260h260V1z" fill="#FF7549"/><path opacity=".7" d="M130 214.186c45.942 0 83.186-37.244 83.186-83.186 0-45.942-37.244-83.186-83.186-83.186-45.942 0-83.186 37.244-83.186 83.186 0 45.942 37.244 83.186 83.186 83.186z" fill="#fff"/><path d="M0 469l260 260H0V469z" fill="#233B99"/><g clip-path="url(#clip0_1_125)"><path d="M259.687 729H0v260.156h259.687V729z" fill="#FF7549"/><path d="M260 989.156a130.28 130.28 0 00-9.883-49.778 130.11 130.11 0 00-28.147-42.201 129.826 129.826 0 00-42.124-28.197 129.641 129.641 0 00-49.689-9.902 129.642 129.642 0 00-49.689 9.902 129.824 129.824 0 00-42.124 28.197 130.098 130.098 0 00-28.147 42.201 130.276 130.276 0 00-9.884 49.778H260z" fill="#fff" fill-opacity=".72"/></g><defs><clipPath id="clip0_1_125"><path fill="#fff" transform="translate(0 729)" d="M0 0h260v260H0z"/></clipPath></defs></svg>