<svg width="22" height="22" fill="none" xmlns="http://www.w3.org/2000/svg"><path fill-rule="evenodd" clip-rule="evenodd" d="M0 11c0-4.394 0-6.591 1.047-8.174a6.306 6.306 0 011.78-1.779C4.408 0 6.605 0 11 0s6.591 0 8.174 1.047a6.305 6.305 0 011.779 1.78C22 4.408 22 6.605 22 11s0 6.59-1.047 8.173a6.304 6.304 0 01-1.78 1.78C17.591 22 15.395 22 11 22s-6.591 0-8.174-1.047a6.306 6.306 0 01-1.779-1.78C0 17.591 0 15.393 0 11zm16.695 0a5.695 5.695 0 11-11.39 0 5.695 5.695 0 0111.39 0zM11 14.77a3.768 3.768 0 100-7.536 3.768 3.768 0 000 7.536zm5.92-8.411a1.338 1.338 0 100-2.676 1.338 1.338 0 000 2.676z" fill="#181A3F"/></svg>