<svg width="22" height="22" fill="none" xmlns="http://www.w3.org/2000/svg"><path d="M0 2.958c0-.705.248-1.287.743-1.746C1.24.754 1.883.524 2.676.524c.778 0 1.408.226 1.89.678.495.465.743 1.072.743 1.82 0 .677-.24 1.241-.722 1.693-.496.466-1.147.698-1.954.698h-.021c-.779 0-1.409-.232-1.89-.698C.241 4.249 0 3.664 0 2.958zm.276 18.519V7.339H4.99v14.138H.276zm7.326 0h4.715v-7.894c0-.494.056-.875.17-1.143a3.07 3.07 0 01.902-1.217c.404-.332.91-.498 1.518-.498 1.586 0 2.379 1.066 2.379 3.196v7.556H22V13.37c0-2.088-.495-3.672-1.486-4.751C19.523 7.54 18.212 7 16.584 7c-1.825 0-3.248.784-4.267 2.35v.042h-.022l.022-.042V7.34H7.602c.029.45.043 1.855.043 4.21 0 2.357-.014 5.666-.043 9.927z" fill="#181A3F"/></svg>