<svg width="246" height="48" fill="none" xmlns="http://www.w3.org/2000/svg"><path d="M30.146.062l18.06 18.133-29.619 29.739L.527 29.8 30.147.062z" fill="#233B99"/><path d="M12.096 18.082L30.156-.051l29.618 29.738-18.06 18.133-29.618-29.738z" fill="#FF7549"/><path d="M77.556 13.667c1.055 0 2.008.22 2.86.663a5.02 5.02 0 012.036 1.878c.496.81.743 1.74.743 2.79 0 .727-.137 1.408-.412 2.043-.267.626-.725 1.091-1.376 1.395 1.797.442 2.696 2.205 2.696 5.289 0 .957-.261 1.841-.784 2.651a5.554 5.554 0 01-2.118 1.92c-.89.47-1.857.704-2.902.704h-8.033V13.667h7.29zm-.495 7.25c.367 0 .701-.083 1.004-.249a1.82 1.82 0 00.729-.69c.183-.304.275-.64.275-1.008 0-.543-.193-.972-.578-1.285-.385-.322-.862-.483-1.43-.483h-2.668v3.715h2.668zm.798 8.575c.477 0 .912-.11 1.306-.331a2.54 2.54 0 00.935-.94 2.7 2.7 0 00.344-1.352c0-.424-.119-.824-.357-1.202-.23-.387-.541-.7-.936-.939a2.445 2.445 0 00-1.292-.359h-3.466v5.123h3.466zm18.46-15.825a5.3 5.3 0 012.846.8 5.73 5.73 0 012.035 2.155c.505.902.757 1.887.757 2.955 0 1.234-.303 2.339-.908 3.314a5.884 5.884 0 01-2.475 2.21L103.139 33h-4.758l-4.346-7.512h-1.43V33h-4.127V13.667h7.84zm-.496 7.678c.358 0 .688-.092.99-.276a2.18 2.18 0 00.743-.76 2.06 2.06 0 00.275-1.036c0-.368-.092-.708-.275-1.021a2.032 2.032 0 00-.743-.76 1.803 1.803 0 00-.99-.29h-3.218v4.143h3.218zm21.281-7.678L124.091 33h-4.374l-1.1-3.038h-7.674L109.842 33h-4.373l6.987-19.333h4.648zm0 12.152l-2.338-6.407-2.31 6.407h4.648zM127.4 13.667h4.456l7.043 11.848V13.667h4.126V33h-4.457l-7.041-11.849V33H127.4V13.667zm26.689 0c1.742 0 3.347.437 4.814 1.312a9.616 9.616 0 013.507 3.521c.871 1.473 1.307 3.084 1.307 4.833a9.4 9.4 0 01-1.307 4.848 9.756 9.756 0 01-3.507 3.52c-1.467.866-3.072 1.299-4.814 1.299h-6.381V13.667h6.381zm0 15.19c.981 0 1.893-.244 2.737-.732a5.555 5.555 0 002.008-2.016 5.32 5.32 0 00.757-2.776c0-.994-.252-1.914-.757-2.761a5.555 5.555 0 00-2.008-2.017 5.298 5.298 0 00-2.737-.745h-2.256v11.047h2.256zm14.015-15.19h4.127V33h-4.127V13.667zm9.204 0h4.456l7.043 11.848V13.667h4.125V33h-4.456l-7.042-11.849V33h-4.126V13.667zm28.676 19.692c-1.761 0-3.365-.451-4.813-1.353-1.441-.912-2.577-2.136-3.412-3.674-.825-1.537-1.238-3.213-1.238-5.026 0-1.906.446-3.618 1.335-5.137.898-1.52 2.081-2.702 3.548-3.55 1.467-.855 3.021-1.284 4.663-1.284a8.82 8.82 0 014.029.98c1.293.655 2.444 1.653 3.452 2.998l-3.686 1.988c-.549-.617-1.155-1.077-1.815-1.38a4.706 4.706 0 00-2.036-.47c-.925 0-1.802.253-2.626.76-.816.506-1.476 1.21-1.981 2.112-.504.902-.756 1.924-.756 3.066 0 1.068.243 2.048.729 2.941a5.589 5.589 0 001.966 2.113 4.992 4.992 0 002.696.773c.88 0 1.719-.24 2.517-.718.806-.479 1.481-1.188 2.021-2.127h-2.585v-3.59h7.455c.009.12.014.295.014.525 0 1.823-.423 3.503-1.266 5.04-.844 1.538-1.99 2.758-3.438 3.66a8.855 8.855 0 01-4.773 1.353zm26.965-10.08l-6.987-9.64h5.089l4.457 6.132 4.456-6.132h5.088l-6.987 9.64L245.108 33h-5.118l-4.482-6.187L231.024 33h-5.117l7.042-9.722z" fill="#181A3F"/></svg>