<svg width="662" height="662" fill="none" xmlns="http://www.w3.org/2000/svg"><path d="M662 0H331v331h331V0z" fill="#CDDCEB"/><path d="M331 331L0 662h331V331z" fill="#233B99"/><path d="M496.5 331C405.097 331 331 405.097 331 496.5S405.097 662 496.5 662 662 587.903 662 496.5 587.903 331 496.5 331z" fill="#FF7549"/><path opacity=".72" d="M496.5 607.563c60.409 0 109.38-48.971 109.38-109.38s-48.971-109.38-109.38-109.38-109.38 48.971-109.38 109.38 48.971 109.38 109.38 109.38z" fill="#fff"/><path d="M331 0H0v331h331V0z" fill="#233B99"/><path d="M331 331a168.66 168.66 0 00-12.598-63.978 167.297 167.297 0 00-35.876-54.238 165.397 165.397 0 00-53.692-36.241 164.047 164.047 0 00-63.334-12.726 164.047 164.047 0 00-63.334 12.726 165.394 165.394 0 00-53.692 36.241 167.298 167.298 0 00-35.876 54.238A168.657 168.657 0 000 331h331z" fill="#FF7549"/><path d="M0 0c0 21.904 4.28 40.615 12.598 60.851a166.894 166.894 0 0035.876 54.113 165.42 165.42 0 0053.692 36.156 164.369 164.369 0 0063.334 12.697c21.734 0 43.255-4.314 63.334-12.697a165.423 165.423 0 0053.692-36.156 166.893 166.893 0 0035.876-54.113C326.719 40.615 331 21.904 331 0H0z" fill="#fff" fill-opacity=".4"/></svg>