<svg width="87" height="85" fill="none" xmlns="http://www.w3.org/2000/svg"><path d="M42.078 0c-5.526 0-10.997 1.1-16.103 3.235a42.052 42.052 0 00-13.65 9.213 42.53 42.53 0 00-9.122 13.788A42.87 42.87 0 000 42.5a42.87 42.87 0 003.203 16.264 42.53 42.53 0 009.121 13.788 42.053 42.053 0 0013.652 9.213A41.717 41.717 0 0042.078 85V0z" fill="#233B99"/><path d="M64.539 65.104c12.405 0 22.46-10.12 22.46-22.604S76.945 19.896 64.54 19.896 42.08 30.016 42.08 42.5s10.055 22.604 22.46 22.604z" fill="#FF7549"/></svg>