<svg width="84" height="84" fill="none" xmlns="http://www.w3.org/2000/svg"><g clip-path="url(#clip0_1_82)"><path d="M84 0a41.716 41.716 0 01-3.197 16.015 41.84 41.84 0 01-9.105 13.576 42.012 42.012 0 01-13.625 9.072 42.134 42.134 0 01-32.146 0 42.012 42.012 0 01-13.625-9.072 41.84 41.84 0 01-9.105-13.576A41.716 41.716 0 010 0h84z" fill="#FF7549"/><path d="M84 84a41.716 41.716 0 00-3.197-16.015 41.84 41.84 0 00-9.105-13.576 42.012 42.012 0 00-13.625-9.072 42.134 42.134 0 00-32.146 0 42.012 42.012 0 00-13.625 9.072 41.84 41.84 0 00-9.105 13.576A41.716 41.716 0 000 84h84z" fill="#233B99"/></g><defs><clipPath id="clip0_1_82"><path fill="#fff" d="M0 0h84v84H0z"/></clipPath></defs></svg>