<svg width="113" height="60" fill="none" xmlns="http://www.w3.org/2000/svg"><g clip-path="url(#clip0_1_98)"><path d="M30.034 60c16.587 0 30.033-13.431 30.033-30 0-16.569-13.447-30-30.034-30S0 13.431 0 30c0 16.569 13.447 30 30.034 30z" fill="#FF7549"/><path d="M52.933 60c16.587 0 30.033-13.431 30.033-30 0-16.569-13.446-30-30.033-30-16.587 0-30.034 13.431-30.034 30 0 16.569 13.447 30 30.034 30z" fill="#233B99"/><path d="M82.967 60C99.554 60 113 46.569 113 30c0-16.569-13.446-30-30.033-30C66.38 0 52.933 13.431 52.933 30c0 16.569 13.447 30 30.034 30z" fill="#CDDCEB"/></g><defs><clipPath id="clip0_1_98"><path fill="#fff" d="M0 0h113v60H0z"/></clipPath></defs></svg>