<svg width="91" height="92" fill="none" xmlns="http://www.w3.org/2000/svg"><g clip-path="url(#clip0_1_89)"><path d="M29.051 92c16.045 0 29.051-13.007 29.051-29.051 0-16.045-13.006-29.051-29.05-29.051C13.006 33.898 0 46.904 0 62.948 0 78.994 13.007 92 29.051 92z" fill="#CDDCEB"/><path d="M44.311 58.102c16.045 0 29.051-13.006 29.051-29.05C73.362 13.006 60.356 0 44.312 0 28.266 0 15.26 13.007 15.26 29.051c0 16.045 13.007 29.051 29.051 29.051z" fill="#233B99"/><path d="M61.949 92C77.993 92 91 78.993 91 62.95c0-16.045-13.007-29.051-29.051-29.051-16.045 0-29.051 13.006-29.051 29.05C32.898 78.994 45.904 92 61.948 92z" fill="#FF7549"/></g><defs><clipPath id="clip0_1_89"><path fill="#fff" d="M0 0h91v92H0z"/></clipPath></defs></svg>