<svg width="62" height="84" fill="none" xmlns="http://www.w3.org/2000/svg"><path d="M59.017 26.567c0 1.371-.073 2.67-.291 3.97-.219 1.3-.51 2.672-.946 3.899H3.493c-.072-.217-.218-6.714-.218-7.653 0-2.67.364-5.27 1.164-7.796v-.073C7.932 7.797 18.921 0 31.146 0c15.427.072 27.87 11.984 27.87 26.567z" fill="#233B99"/><path d="M62 53.751C62 70.428 48.101 84 31 84c-6.477 0-13.026-2.238-18.556-6.209-5.385-3.898-9.315-9.457-11.207-15.665C.727 60.466.291 58.733.073 57L0 56.278v-15.16h20.157v-6.683H57.78C60.545 39.055 62 48.41 62 53.751z" fill="#FF7549"/></svg>