<svg width="65" height="84" fill="none" xmlns="http://www.w3.org/2000/svg"><path d="M55.132 9.502L18.794 41.05H.512v-9.882c0-1.293-.075-2.509.151-3.725v-.228C3.156 11.479 16.528 0 32.393 0 40.475 0 48.18 3.04 54.15 8.59c.377.304.68.608.982.912z" fill="#FF7549"/><path d="M64.499 32.308c0 6.842-2.19 12.467-5.288 17.18H9.124l9.745-8.438L55.207 9.502c5.288 5.398 8.537 12.391 9.217 19.917.075.912.075 1.9.075 2.889z" fill="#233B99"/><path d="M64.5 49.487V84H2.628V55.113l6.497-5.626H64.5z" fill="#CDDCEB"/></svg>