<svg width="22" height="20" fill="none" xmlns="http://www.w3.org/2000/svg"><path d="M14.7.877V.873h1.031l.377.077c.252.05.48.116.685.197.205.08.403.175.595.283.191.108.365.218.521.33.155.111.294.229.417.353.122.126.311.158.57.097.257-.06.535-.145.833-.253.297-.108.591-.23.882-.365.291-.135.468-.22.532-.257l.1-.06.003-.007.02-.01.02-.01.02-.01.02-.01.003-.006.006-.005.006-.004.004-.006.02-.006.02-.004-.004.03-.006.031-.01.03-.01.03-.01.021-.01.02-.01.03a.714.714 0 00-.02.082 3.44 3.44 0 01-.188.405 5.085 5.085 0 01-.446.72 3.516 3.516 0 01-.48.55 4.612 4.612 0 00-.284.264.857.857 0 01-.169.141l-.099.067-.02.01-.02.01-.003.007-.006.004-.006.004-.004.006-.02.01-.02.01-.004.006-.006.004-.006.004-.004.006-.004.006-.006.005-.006.004-.004.006h.1l.555-.122c.37-.081.724-.179 1.061-.294l.536-.182.06-.02.03-.01.02-.01.019-.01.02-.01.02-.01.04-.007.039-.004v.04l-.01.004-.01.007-.004.006-.006.004-.006.004-.004.006-.004.006-.006.004-.006.004-.003.006-.005.006-.006.004-.01.02-.01.02-.005.005-.252.344c-.165.227-.255.342-.268.345-.013.004-.032.024-.056.06-.022.038-.162.189-.42.452-.258.264-.51.498-.758.703a.967.967 0 00-.377.762c-.004.3-.019.639-.045 1.017-.027.378-.076.787-.15 1.226-.072.439-.184.935-.337 1.49a13.727 13.727 0 01-2.499 4.922c-.205.257-.464.546-.778.868l-.515.526c-.03.03-.16.14-.39.333-.227.193-.471.386-.733.579a8.3 8.3 0 01-.718.48c-.219.128-.482.275-.79.44-.307.166-.639.32-.996.462a14.87 14.87 0 01-1.13.395c-.397.121-.78.216-1.151.284-.37.067-.79.125-1.26.172l-.704.07v.01h-1.29v-.01l-.168-.01a8.547 8.547 0 01-.278-.02 32.29 32.29 0 01-.823-.111c-.476-.068-.85-.135-1.12-.203a14.663 14.663 0 01-1.211-.385c-.536-.189-.994-.38-1.375-.573-.38-.192-.617-.314-.714-.365a5.048 5.048 0 01-.321-.186l-.179-.112-.004-.006-.006-.004-.006-.004-.004-.006-.02-.01-.02-.01-.003-.006-.006-.004-.006-.004-.004-.006-.004-.006-.006-.005H0v-.04l.02.004.02.006.089.01c.06.007.221.017.486.03a8.773 8.773 0 001.756-.09c.31-.048.677-.129 1.1-.244a8.01 8.01 0 001.167-.409c.353-.16.604-.278.754-.357a7 7 0 00.678-.43l.457-.313.004-.006.006-.004.005-.004.004-.006.004-.006.006-.005.006-.004.004-.006.02-.006.02-.004.004-.02.006-.02.006-.004.004-.006-.159-.01a73.136 73.136 0 01-.307-.02 2.937 2.937 0 01-.467-.092 4.413 4.413 0 01-.684-.243 5.241 5.241 0 01-.714-.385 3.513 3.513 0 01-.502-.37 8.868 8.868 0 01-.397-.414 4.094 4.094 0 01-.42-.553 4.997 4.997 0 01-.342-.655l-.164-.368-.01-.03-.01-.031-.006-.02-.004-.02.03.003.03.006.218.03c.145.021.373.028.684.021.311-.007.526-.02.645-.04s.192-.034.218-.041l.04-.01.05-.01.049-.01.004-.006.006-.005.006-.004.004-.006-.04-.01-.04-.01-.04-.01-.039-.01-.04-.01a3.425 3.425 0 01-.138-.04 7.55 7.55 0 01-.536-.224 4.065 4.065 0 01-.694-.375 4.81 4.81 0 01-.492-.399 5.684 5.684 0 01-.51-.563 4.064 4.064 0 01-.496-.8 4.93 4.93 0 01-.327-.871A4.794 4.794 0 01.889 7.7l-.036-.426.02.004.02.006.02.01.02.01.02.01.019.011.308.142c.205.094.46.175.763.243.304.067.486.105.546.111l.09.01h.178l-.004-.006-.006-.004-.006-.004-.004-.006-.004-.006-.006-.004-.006-.004-.004-.006-.02-.01-.02-.01-.004-.006-.006-.004-.006-.004-.004-.007-.02-.01-.02-.01-.003-.006-.17-.13a2.626 2.626 0 01-.342-.33 11.869 11.869 0 01-.357-.425 3.29 3.29 0 01-.317-.476 5.831 5.831 0 01-.294-.645 4.647 4.647 0 01-.321-1.564c-.007-.256 0-.476.02-.658.02-.183.059-.389.118-.618.06-.23.146-.473.258-.73l.169-.384.01-.03.01-.031.006-.004.004-.006.004-.006.006-.005.006.005.004.006.003.006.006.004.006.004.004.006.004.006.006.004.01.02.01.02.006.005.004.006.268.304c.178.202.39.428.635.678.244.25.38.38.406.39.027.01.06.041.1.092.04.05.171.17.396.36.225.188.52.408.883.658.364.25.767.496 1.21.74.443.242.92.462 1.428.658.51.195.867.324 1.072.384.205.061.555.139 1.051.233.496.095.87.156 1.12.183.252.027.424.042.517.046l.139.004-.004-.03-.006-.03-.04-.254a4.87 4.87 0 01-.04-.709c0-.304.023-.584.07-.84a5.06 5.06 0 01.208-.78c.093-.264.183-.475.272-.635.09-.158.207-.338.353-.54a4.338 4.338 0 011.359-1.206c.297-.169.572-.297.823-.385a3.74 3.74 0 01.635-.172c.172-.027.258-.043.258-.047z" fill="#181A3F"/></svg>