<svg width="25" height="17" fill="none" xmlns="http://www.w3.org/2000/svg"><path d="M13.048 16.977l-5.077-.093c-1.644-.032-3.293.032-4.904-.3C.615 16.085.44 13.648.259 11.603a34.687 34.687 0 01.32-8.654C.844 1.349 1.894.395 3.518.291c5.482-.377 11-.333 16.47-.157.577.016 1.159.104 1.728.205 2.812.489 2.88 3.252 3.063 5.578.181 2.35.105 4.712-.243 7.046-.278 1.932-.812 3.553-3.062 3.71-2.82.204-5.575.368-8.403.316 0-.012-.016-.012-.024-.012zm-2.985-4.893c2.125-1.211 4.21-2.402 6.322-3.605-2.129-1.211-4.21-2.402-6.322-3.605v7.21z" fill="#181A3F"/></svg>