<svg width="260" height="989" viewBox="0 0 260 989" fill="none" xmlns="http://www.w3.org/2000/svg">
<path d="M260 1H0V261H260V1Z" fill="#FF7549"/>
<path opacity="0.7" d="M130 214.186C175.942 214.186 213.186 176.942 213.186 131C213.186 85.0578 175.942 47.8142 130 47.8142C84.0577 47.8142 46.8141 85.0578 46.8141 131C46.8141 176.942 84.0577 214.186 130 214.186Z" fill="white"/>
<path d="M0 469L260 729H0V469Z" fill="#233B99"/>
<g clip-path="url(#clip0_1_125)">
<path d="M259.687 729H0V989.156H259.687V729Z" fill="#FF7549"/>
<path d="M260 989.156C260 972.074 256.642 955.159 250.117 939.378C243.591 923.596 234.027 909.256 221.97 897.177C209.913 885.098 195.599 875.517 179.846 868.98C164.093 862.443 147.208 859.078 130.157 859.078C113.106 859.078 96.2213 862.443 80.468 868.98C64.7146 875.517 50.4008 885.098 38.3437 897.177C26.2867 909.256 16.7225 923.596 10.1972 939.378C3.67197 955.159 0.313475 972.074 0.313477 989.156H130.157H260Z" fill="white" fill-opacity="0.72"/>
</g>
<defs>
<clipPath id="clip0_1_125">
<rect width="260" height="260" fill="white" transform="translate(0 729)"/>
</clipPath>
</defs>
</svg>
